<?xml version="1.0" encoding="UTF-8" standalone="no"?>
<!-- Created with Inkscape (http://www.inkscape.org/) -->

<svg
   xmlns:dc="http://purl.org/dc/elements/1.1/"
   xmlns:cc="http://creativecommons.org/ns#"
   xmlns:rdf="http://www.w3.org/1999/02/22-rdf-syntax-ns#"
   xmlns:svg="http://www.w3.org/2000/svg"
   xmlns="http://www.w3.org/2000/svg"
   xmlns:sodipodi="http://sodipodi.sourceforge.net/DTD/sodipodi-0.dtd"
   xmlns:inkscape="http://www.inkscape.org/namespaces/inkscape"
   width="10.72127mm"
   height="8.2011366mm"
   viewBox="0 0 10.72127 8.2011355"
   version="1.1"
   id="svg5889"
   inkscape:version="0.92.3 (2405546, 2018-03-11)"
   sodipodi:docname="pimiento-rojo.svg">
  <defs
     id="defs5883" />
  <sodipodi:namedview
     id="base"
     pagecolor="#ffffff"
     bordercolor="#666666"
     borderopacity="1.0"
     inkscape:pageopacity="0.0"
     inkscape:pageshadow="2"
     inkscape:zoom="3.06"
     inkscape:cx="82.659108"
     inkscape:cy="-10.859745"
     inkscape:document-units="mm"
     inkscape:current-layer="layer1"
     showgrid="false"
     fit-margin-top="1"
     fit-margin-bottom="1"
     fit-margin-right="1"
     fit-margin-left="1"
     inkscape:window-width="1853"
     inkscape:window-height="1025"
     inkscape:window-x="67"
     inkscape:window-y="27"
     inkscape:window-maximized="1" />
  <metadata
     id="metadata5886">
    <rdf:RDF>
      <cc:Work
         rdf:about="">
        <dc:format>image/svg+xml</dc:format>
        <dc:type
           rdf:resource="http://purl.org/dc/dcmitype/StillImage" />
        <dc:title></dc:title>
      </cc:Work>
    </rdf:RDF>
  </metadata>
  <g
     inkscape:label="Capa 1"
     inkscape:groupmode="layer"
     id="layer1"
     transform="translate(-83.963112,-110.38821)">
    <g
       id="g1374"
       transform="matrix(0.35277777,0,0,-0.35277777,88.22189,117.42662)">
      <path
         d="m 0,0 h -0.002 c 0,0 0.05,0.009 0.143,0.029 0.644,0.128 1.328,0.298 2.063,0.526 0.814,0.251 1.581,0.534 2.302,0.841 3.367,1.333 8.157,4.313 10.186,8.306 C 14.125,9.609 13.098,9.122 12.571,9.382 11.507,8.761 10.12,8.903 9.206,9.816 8.294,10.728 8.153,12.116 8.773,13.181 8.545,13.644 8.453,14.156 8.496,14.661 7.267,14.071 6.002,13.159 4.856,11.971 4.25,11.344 3.723,10.687 3.279,10.022 2.88,9.545 2.474,9.017 2.068,8.43"
         style="fill:#9f1d27;fill-opacity:1;fill-rule:nonzero;stroke:none"
         id="path1376"
         inkscape:connector-curvature="0" />
    </g>
    <g
       id="g1378"
       transform="matrix(0.35277777,0,0,-0.35277777,92.277283,114.18925)">
      <path
         d="M 0,0 C -1.065,-0.621 -2.453,-0.479 -3.365,0.434 -4.276,1.347 -4.419,2.734 -3.798,3.798 -4.027,4.261 -4.119,4.775 -4.075,5.279 -5.303,4.69 -6.569,3.778 -7.716,2.59 -8.323,1.962 -8.848,1.305 -9.292,0.64 c -0.4,-0.476 -0.805,-1.005 -1.211,-1.592 -3.957,-5.725 -8.674,-4.411 -8.674,-4.411 0,0 -0.923,0.551 -1.473,-0.372 -0.501,-0.839 1.15,-4.962 8.079,-3.646 l -10e-4,-0.002 c 0,0 0.048,0.01 0.141,0.03 0.644,0.129 1.329,0.299 2.064,0.525 0.813,0.253 1.58,0.536 2.302,0.843 3.367,1.331 7.72,3.741 9.749,7.734 C 1.116,-0.344 0.526,-0.26 0,0"
         style="fill:#bd2030;fill-opacity:1;fill-rule:nonzero;stroke:none"
         id="path1380"
         inkscape:connector-curvature="0" />
    </g>
    <g
       id="g1382"
       transform="matrix(0.35277777,0,0,-0.35277777,93.353536,112.64983)">
      <path
         d="m 0,0 c -0.514,0.453 -1.148,0.682 -1.783,0.695 -0.091,0.629 -0.396,1.231 -0.908,1.684 -1.15,1.018 -2.906,0.91 -3.923,-0.24 -0.449,-0.508 -0.678,-1.134 -0.695,-1.762 -0.014,-0.505 0.11,-1.013 0.368,-1.461 -0.557,-1.101 -0.33,-2.478 0.636,-3.332 0.968,-0.855 2.36,-0.912 3.386,-0.227 0.541,-0.228 1.136,-0.274 1.696,-0.148 0.548,0.125 1.063,0.414 1.463,0.866 C 1.257,-2.775 1.15,-1.018 0,0"
         style="fill:#4f7837;fill-opacity:1;fill-rule:nonzero;stroke:none"
         id="path1384"
         inkscape:connector-curvature="0" />
    </g>
    <g
       id="g1386"
       transform="matrix(0.35277777,0,0,-0.35277777,93.353536,112.64983)">
      <path
         d="m 0,0 c -0.21,0.185 -0.442,0.328 -0.684,0.438 0.227,-0.446 0.368,-0.941 0.4,-1.465 0.099,-1.625 -0.878,-3.102 -2.302,-3.73 0.446,-0.123 0.915,-0.135 1.363,-0.034 0.548,0.125 1.063,0.414 1.463,0.866 C 1.257,-2.775 1.15,-1.018 0,0"
         style="fill:#3a5c2b;fill-opacity:1;fill-rule:nonzero;stroke:none"
         id="path1388"
         inkscape:connector-curvature="0" />
    </g>
    <g
       id="g1390"
       transform="matrix(0.35277777,0,0,-0.35277777,92.873971,112.74921)">
      <path
         d="M 0,0 C -0.354,-0.399 -0.963,-0.436 -1.362,-0.084 -1.761,0.27 -1.797,0.878 -1.445,1.277 L 0.388,3.533 C 0.74,3.931 1.348,3.969 1.747,3.616 2.146,3.263 2.184,2.653 1.831,2.255 Z"
         style="fill:#5b8d3e;fill-opacity:1;fill-rule:nonzero;stroke:none"
         id="path1392"
         inkscape:connector-curvature="0" />
    </g>
    <g
       id="g1394"
       transform="matrix(0.35277777,0,0,-0.35277777,89.386339,113.67285)">
      <path
         d="M 0,0 C -0.947,-1.145 -1.516,-2.235 -1.274,-2.436 -1.03,-2.637 -0.067,-1.872 0.88,-0.727 1.826,0.417 2.397,1.508 2.154,1.708 1.911,1.91 0.947,1.146 0,0"
         style="fill:#db4258;fill-opacity:1;fill-rule:nonzero;stroke:none"
         id="path1396"
         inkscape:connector-curvature="0" />
    </g>
    <g
       id="g1398"
       transform="matrix(0.35277777,0,0,-0.35277777,86.254414,116.29438)">
      <path
         d="m 0,0 c -1.544,-0.23 -2.608,0.083 -2.548,-0.276 0.034,-0.333 1.204,-1.151 2.749,-0.85 C 1.747,-0.85 2.81,0.379 2.752,0.641 2.716,0.929 1.547,0.204 0,0"
         style="fill:#db4258;fill-opacity:1;fill-rule:nonzero;stroke:none"
         id="path1400"
         inkscape:connector-curvature="0" />
    </g>
  </g>
</svg>
